M48
; DRILL file {KiCad 9.0.4-9.0.4-0~ubuntu24.04.1} date 2026-07-29T17:24:41-0300
; FORMAT={-:-/ absolute / metric / decimal}
; #@! TF.CreationDate,2026-07-29T17:24:41-03:00
; #@! TF.GenerationSoftware,Kicad,Pcbnew,9.0.4-9.0.4-0~ubuntu24.04.1
; #@! TF.FileFunction,MixedPlating,1,2
FMAT,2
METRIC
; #@! TA.AperFunction,Plated,PTH,ViaDrill
T1C0.400
; #@! TA.AperFunction,Plated,PTH,ComponentDrill
T2C0.800
; #@! TA.AperFunction,Plated,PTH,ComponentDrill
T3C0.864
; #@! TA.AperFunction,Plated,PTH,ComponentDrill
T4C1.000
; #@! TA.AperFunction,Plated,PTH,ComponentDrill
T5C1.200
%
G90
G05
T1
X128.86Y-127.05
X139.51Y-103.6
X140.06Y-92.02
X151.636Y-116.29
T2
X113.35Y-118.48
X113.35Y-121.98
X114.47Y-103.8
X116.712Y-118.63
X116.712Y-126.25
X117.37Y-99.37
X117.97Y-103.8
X121.47Y-103.81
X121.952Y-118.68
X121.952Y-126.3
X124.97Y-103.81
X124.99Y-99.37
X126.07Y-119.54
X126.07Y-123.04
X130.49Y-94.95
X130.73Y-98.51
X130.73Y-102.01
X135.72Y-98.53
X135.72Y-102.03
X136.679Y-126.267
X138.11Y-94.95
X144.299Y-126.267
X147.219Y-126.207
X153.297Y-98.2
X153.297Y-101.7
X154.839Y-126.207
X158.028Y-102.136
X158.078Y-97.456
X165.648Y-102.136
X165.698Y-97.456
X169.778Y-98.556
X169.778Y-102.056
X174.918Y-98.546
X174.918Y-102.046
X177.91Y-126.8
X179.898Y-94.446
X179.898Y-102.066
X184.728Y-94.486
X184.728Y-102.106
X185.53Y-126.8
X188.57Y-126.78
X196.19Y-126.78
X199.63Y-101.82
X199.63Y-109.44
X199.67Y-113.68
X203.17Y-113.68
X204.41Y-101.72
X204.41Y-109.34
X207.6Y-96.11
X207.6Y-98.61
X207.82Y-107.12
X207.82Y-114.74
X210.96Y-101.95
X211.12Y-117.39
X211.13Y-112.64
X211.96Y-120.9
X211.96Y-124.4
X213.315Y-105.535
X213.315Y-109.035
X216.54Y-120.91
X216.54Y-124.41
X218.1Y-105.53
X218.1Y-109.03
X218.58Y-101.95
X218.74Y-117.39
X218.75Y-112.64
T3
X117.54Y-108.52
X117.54Y-116.14
X120.08Y-108.52
X120.08Y-116.14
X122.62Y-108.52
X122.62Y-116.14
X125.16Y-108.52
X125.16Y-116.14
X141.9Y-94.67
X141.9Y-102.29
X144.44Y-94.67
X144.44Y-102.29
X146.98Y-94.67
X146.98Y-102.29
X149.52Y-94.67
X149.52Y-102.29
X200.02Y-117.51
X200.02Y-125.13
X202.56Y-117.51
X202.56Y-125.13
X205.1Y-117.51
X205.1Y-125.13
X207.64Y-117.51
X207.64Y-125.13
T4
X113.38Y-109.1
X113.38Y-111.64
X113.38Y-114.18
X124.9Y-95.28
X133.3Y-126.98
X201.72Y-96.84
X223.54Y-117.03
X223.54Y-119.57
X223.58Y-124.09
T5
X133.727Y-106.31
X133.727Y-122.81
X144.977Y-106.33
X144.977Y-122.83
X158.047Y-106.2
X158.047Y-122.7
X169.627Y-106.14
X169.627Y-122.64
X181.247Y-106.23
X181.247Y-122.73
X192.807Y-102.12
X192.807Y-122.62
M30
