M48
; DRILL file {KiCad 9.0.4-9.0.4-0~ubuntu24.04.1} date 2026-05-22T16:07:16-0300
; FORMAT={-:-/ absolute / metric / decimal}
; #@! TF.CreationDate,2026-05-22T16:07:16-03:00
; #@! TF.GenerationSoftware,Kicad,Pcbnew,9.0.4-9.0.4-0~ubuntu24.04.1
; #@! TF.FileFunction,MixedPlating,1,2
FMAT,2
METRIC
; #@! TA.AperFunction,Plated,PTH,ViaDrill
T1C0.400
; #@! TA.AperFunction,Plated,PTH,ComponentDrill
T2C0.800
; #@! TA.AperFunction,Plated,PTH,ComponentDrill
T3C1.000
; #@! TA.AperFunction,Plated,PTH,ComponentDrill
T4C1.200
%
G90
G05
T1
X78.19Y-102.41
X78.27Y-99.11
X91.64Y-100.81
X104.29Y-82.72
X127.218Y-108.983
X164.154Y-98.826
X164.655Y-87.885
X170.05Y-86.22
X181.98Y-101.21
X199.755Y-86.895
T2
X56.39Y-118.89
X56.4Y-113.27
X57.3Y-86.7
X57.33Y-90.66
X60.21Y-99.76
X60.21Y-107.38
X62.75Y-99.76
X62.75Y-107.38
X64.01Y-118.89
X64.02Y-113.27
X64.92Y-86.7
X64.95Y-90.66
X65.29Y-99.76
X65.29Y-107.38
X67.83Y-99.76
X67.83Y-107.38
X68.1Y-90.72
X68.1Y-95.52
X68.33Y-86.56
X69.26Y-111.63
X69.26Y-119.25
X70.37Y-99.76
X70.37Y-107.38
X72.91Y-99.76
X72.91Y-107.38
X75.15Y-115.21
X75.15Y-118.71
X75.45Y-99.76
X75.45Y-107.38
X75.72Y-90.72
X75.72Y-95.52
X75.95Y-86.56
X80.14Y-86.68
X87.76Y-86.68
X93.38Y-114.43
X93.38Y-117.93
X95.54Y-101.26
X95.54Y-108.88
X100.96Y-114.43
X100.96Y-117.93
X101.18Y-86.47
X102.01Y-101.23
X102.01Y-108.85
X104.11Y-90.58
X104.11Y-98.2
X108.11Y-101.23
X108.11Y-108.85
X108.8Y-86.47
X108.84Y-90.55
X108.84Y-98.17
X113.04Y-109.31
X113.04Y-111.85
X113.04Y-114.39
X113.04Y-116.93
X120.66Y-109.31
X120.66Y-111.85
X120.66Y-114.39
X120.66Y-116.93
X125.24Y-116.91
X125.25Y-111.24
X132.86Y-116.91
X132.87Y-111.24
X147.725Y-96.995
X147.725Y-104.615
X150.47Y-86.48
X150.47Y-94.1
X152.405Y-97.045
X152.405Y-104.665
X156.7Y-86.53
X156.7Y-94.15
X156.7Y-100.49
X156.71Y-105.63
X160.2Y-100.49
X160.21Y-105.63
X161.65Y-86.49
X161.65Y-94.11
X164.33Y-106.56
X164.33Y-119.26
X166.76Y-90.17
X166.76Y-93.67
X169.54Y-111.63
X169.54Y-119.25
X169.66Y-98.58
X169.66Y-101.12
X169.66Y-103.66
X169.66Y-106.2
X172.96Y-86.19
X172.96Y-93.81
X174.57Y-115.34
X174.57Y-118.84
X175.5Y-86.19
X175.5Y-93.81
X177.28Y-98.58
X177.28Y-101.12
X177.28Y-103.66
X177.28Y-106.2
X178.04Y-86.19
X178.04Y-93.81
X180.23Y-109.86
X180.29Y-114.53
X180.32Y-119.14
X180.58Y-86.19
X180.58Y-93.81
X183.73Y-109.86
X183.79Y-114.53
X183.82Y-119.14
X185.06Y-86.45
X186.75Y-91.46
X186.75Y-93.96
X186.78Y-98.16
X186.78Y-105.78
X188.97Y-111.93
X188.97Y-119.55
X192.25Y-90.45
X192.25Y-93.95
X192.27Y-98.2
X192.27Y-105.82
X192.68Y-86.45
X194.74Y-111.91
X194.74Y-119.53
X197.74Y-90.42
X197.74Y-93.92
X197.78Y-98.24
X197.78Y-105.86
X200.03Y-111.93
X200.03Y-119.55
T3
X58.42Y-95.63
X60.96Y-95.63
X63.5Y-95.63
X94.91Y-86.29
X106.44Y-117.95
X205.15Y-83.49
X205.16Y-87.91
X205.16Y-90.45
T4
X80.9Y-93.65
X84.03Y-101.47
X84.03Y-117.97
X97.4Y-93.65
X115.775Y-86.91
X115.775Y-103.41
X128.395Y-86.83
X128.395Y-103.33
X137.5Y-113.67
X140.915Y-86.79
X140.915Y-103.29
X158.0Y-113.67
X205.06Y-95.08
X205.06Y-111.58
M30
