M48
; DRILL file {KiCad 9.0.4-9.0.4-0~ubuntu24.04.1} date 2026-08-20T17:22:58-0300
; FORMAT={-:-/ absolute / metric / decimal}
; #@! TF.CreationDate,2026-08-20T17:22:58-03:00
; #@! TF.GenerationSoftware,Kicad,Pcbnew,9.0.4-9.0.4-0~ubuntu24.04.1
; #@! TF.FileFunction,MixedPlating,1,2
FMAT,2
METRIC
; #@! TA.AperFunction,Plated,PTH,ViaDrill
T1C0.400
; #@! TA.AperFunction,Plated,PTH,ComponentDrill
T2C0.800
; #@! TA.AperFunction,Plated,PTH,ComponentDrill
T3C0.864
; #@! TA.AperFunction,Plated,PTH,ComponentDrill
T4C1.000
; #@! TA.AperFunction,Plated,PTH,ComponentDrill
T5C1.200
%
G90
G05
T1
X128.86Y-127.05
X139.51Y-103.6
X140.06Y-92.83
X151.636Y-116.29
X211.96Y-129.15
X220.17Y-126.29
T2
X113.136Y-120.058
X113.136Y-123.558
X114.47Y-103.8
X116.498Y-120.208
X116.498Y-127.828
X117.37Y-99.37
X117.97Y-103.8
X118.85Y-108.36
X118.85Y-115.98
X121.39Y-108.36
X121.39Y-115.98
X121.47Y-103.81
X121.738Y-120.258
X121.738Y-127.878
X123.93Y-108.36
X123.93Y-115.98
X124.97Y-103.81
X124.99Y-99.37
X125.856Y-121.118
X125.856Y-124.618
X126.47Y-108.36
X126.47Y-115.98
X131.04Y-95.34
X131.28Y-98.9
X131.28Y-102.4
X136.27Y-98.92
X136.27Y-102.42
X136.679Y-126.267
X138.66Y-95.34
X141.9Y-94.67
X141.9Y-102.29
X144.299Y-126.267
X144.44Y-94.67
X144.44Y-102.29
X146.98Y-94.67
X146.98Y-102.29
X147.219Y-126.207
X149.52Y-94.67
X149.52Y-102.29
X153.297Y-98.2
X153.297Y-101.7
X154.839Y-126.207
X158.028Y-102.136
X158.078Y-97.456
X165.648Y-102.136
X165.698Y-97.456
X169.778Y-98.556
X169.778Y-102.056
X174.918Y-98.546
X174.918Y-102.046
X178.11Y-127.77
X179.898Y-94.446
X179.898Y-102.066
X184.728Y-94.486
X184.728Y-102.106
X185.73Y-127.77
X188.77Y-127.75
X196.39Y-127.75
X199.63Y-101.82
X199.63Y-109.44
X199.67Y-113.68
X200.02Y-117.51
X200.02Y-125.13
X202.56Y-117.51
X202.56Y-125.13
X203.17Y-113.68
X204.41Y-101.72
X204.41Y-109.34
X205.1Y-117.51
X205.1Y-125.13
X207.64Y-117.51
X207.82Y-107.12
X207.82Y-114.74
X209.12Y-95.168
X209.12Y-97.668
X210.96Y-101.95
X211.12Y-117.39
X211.13Y-112.64
X211.96Y-120.9
X211.96Y-124.4
X213.315Y-105.535
X213.315Y-109.035
X216.54Y-120.91
X216.54Y-124.41
X218.1Y-105.53
X218.1Y-109.03
X218.58Y-101.95
X218.74Y-117.39
X218.75Y-112.64
T3
X207.64Y-125.13
T4
X113.38Y-109.1
X113.38Y-111.64
X113.38Y-114.18
X124.9Y-95.28
X133.3Y-126.98
X201.72Y-96.84
X223.83Y-119.11
X223.83Y-121.65
X223.87Y-126.17
T5
X133.727Y-106.31
X133.727Y-122.81
X144.977Y-106.33
X144.977Y-122.83
X158.047Y-106.2
X158.047Y-122.7
X169.627Y-106.14
X169.627Y-122.64
X181.247Y-106.23
X181.247Y-122.73
X192.807Y-102.12
X192.807Y-122.62
M30
